<svg id="visual" viewBox="0 0 900 600" width="900" height="600" xmlns="http://www.w3.org/2000/svg" xmlns:xlink="http://www.w3.org/1999/xlink" version="1.1"><rect x="0" y="0" width="900" height="600" fill="#052238"></rect><path d="M0 297L21.5 302.5C43 308 86 319 128.8 320.7C171.7 322.3 214.3 314.7 257.2 305.3C300 296 343 285 385.8 294C428.7 303 471.3 332 514.2 338C557 344 600 327 642.8 326.3C685.7 325.7 728.3 341.3 771.2 335.2C814 329 857 301 878.5 287L900 273L900 601L878.5 601C857 601 814 601 771.2 601C728.3 601 685.7 601 642.8 601C600 601 557 601 514.2 601C471.3 601 428.7 601 385.8 601C343 601 300 601 257.2 601C214.3 601 171.7 601 128.8 601C86 601 43 601 21.5 601L0 601Z" fill="#1b3a67"></path><path d="M0 319L21.5 316.3C43 313.7 86 308.3 128.8 305C171.7 301.7 214.3 300.3 257.2 311.3C300 322.3 343 345.7 385.8 356.5C428.7 367.3 471.3 365.7 514.2 354C557 342.3 600 320.7 642.8 325.2C685.7 329.7 728.3 360.3 771.2 360C814 359.7 857 328.3 878.5 312.7L900 297L900 601L878.5 601C857 601 814 601 771.2 601C728.3 601 685.7 601 642.8 601C600 601 557 601 514.2 601C471.3 601 428.7 601 385.8 601C343 601 300 601 257.2 601C214.3 601 171.7 601 128.8 601C86 601 43 601 21.5 601L0 601Z" fill="#1b467f"></path><path d="M0 405L21.5 405.3C43 405.7 86 406.3 128.8 398.3C171.7 390.3 214.3 373.7 257.2 368.2C300 362.7 343 368.3 385.8 377.3C428.7 386.3 471.3 398.7 514.2 407.7C557 416.7 600 422.3 642.8 414.8C685.7 407.3 728.3 386.7 771.2 376.7C814 366.7 857 367.3 878.5 367.7L900 368L900 601L878.5 601C857 601 814 601 771.2 601C728.3 601 685.7 601 642.8 601C600 601 557 601 514.2 601C471.3 601 428.7 601 385.8 601C343 601 300 601 257.2 601C214.3 601 171.7 601 128.8 601C86 601 43 601 21.5 601L0 601Z" fill="#195297"></path><path d="M0 390L21.5 399.5C43 409 86 428 128.8 432C171.7 436 214.3 425 257.2 427.8C300 430.7 343 447.3 385.8 455.5C428.7 463.7 471.3 463.3 514.2 458.8C557 454.3 600 445.7 642.8 445C685.7 444.3 728.3 451.7 771.2 450.5C814 449.3 857 439.7 878.5 434.8L900 430L900 601L878.5 601C857 601 814 601 771.2 601C728.3 601 685.7 601 642.8 601C600 601 557 601 514.2 601C471.3 601 428.7 601 385.8 601C343 601 300 601 257.2 601C214.3 601 171.7 601 128.8 601C86 601 43 601 21.5 601L0 601Z" fill="#165eb0"></path><path d="M0 429L21.5 438.2C43 447.3 86 465.7 128.8 469.5C171.7 473.3 214.3 462.7 257.2 454.3C300 446 343 440 385.8 447.8C428.7 455.7 471.3 477.3 514.2 476.8C557 476.3 600 453.7 642.8 448.3C685.7 443 728.3 455 771.2 465.5C814 476 857 485 878.5 489.5L900 494L900 601L878.5 601C857 601 814 601 771.2 601C728.3 601 685.7 601 642.8 601C600 601 557 601 514.2 601C471.3 601 428.7 601 385.8 601C343 601 300 601 257.2 601C214.3 601 171.7 601 128.8 601C86 601 43 601 21.5 601L0 601Z" fill="#116aca"></path><path d="M0 534L21.5 535.5C43 537 86 540 128.8 535.5C171.7 531 214.3 519 257.2 515.2C300 511.3 343 515.7 385.8 515.7C428.7 515.7 471.3 511.3 514.2 504C557 496.7 600 486.3 642.8 487C685.7 487.7 728.3 499.3 771.2 505.5C814 511.7 857 512.3 878.5 512.7L900 513L900 601L878.5 601C857 601 814 601 771.2 601C728.3 601 685.7 601 642.8 601C600 601 557 601 514.2 601C471.3 601 428.7 601 385.8 601C343 601 300 601 257.2 601C214.3 601 171.7 601 128.8 601C86 601 43 601 21.5 601L0 601Z" fill="#0977e4"></path><path d="M0 555L21.5 556.2C43 557.3 86 559.7 128.8 558C171.7 556.3 214.3 550.7 257.2 547C300 543.3 343 541.7 385.8 540.8C428.7 540 471.3 540 514.2 543.2C557 546.3 600 552.7 642.8 549.7C685.7 546.7 728.3 534.3 771.2 530.5C814 526.7 857 531.3 878.5 533.7L900 536L900 601L878.5 601C857 601 814 601 771.2 601C728.3 601 685.7 601 642.8 601C600 601 557 601 514.2 601C471.3 601 428.7 601 385.8 601C343 601 300 601 257.2 601C214.3 601 171.7 601 128.8 601C86 601 43 601 21.5 601L0 601Z" fill="#0083ff"></path></svg>